<svg width="90" height="57" viewBox="0 0 90 57" fill="none" xmlns="http://www.w3.org/2000/svg">
<path d="M70 26V21.5C60.8 20.7 57.1667 17.5 56.5 16L51.5 18L43 21L34 24.5L26.5 27L23.5 28.5V30.5L25 31L30 34L36 37L42 39.5H52L59 38.5L64.5 34.5L69 30.5L70 26Z" fill="#0000FF" stroke="black"/>
<path d="M9 17.5L28 26.5L26 27.5L2 20.5L9 17.5Z" fill="#0000AA" stroke="black"/>
<path d="M44.5 40H48L49 55L47 55.5L44.5 40Z" fill="black" stroke="black"/>
<path d="M54 55L53 40H50L52 55H54Z" fill="black" stroke="black"/>
<ellipse rx="11" ry="10.5" transform="matrix(-1 0 0 1 66 10.5)" fill="black"/>
<path d="M89 20.5C89 20.1667 86.5 18.2 76.5 13C77.7 15 72 19 69 20.5H89Z" fill="black" stroke="black"/>
<path d="M60 28L58 23.5C57.2 22.7 35 26.8333 24 29L40 35L54.5 36L59 33.5L60 28Z" fill="#0000AA"/>
<path d="M58.416 24C62.4649 31.7483 61.2502 43.6397 24 29.2183" stroke="black"/>
<rect width="3" height="1" transform="matrix(-1 0 0 1 71 20)" fill="black"/>
<path d="M56 10.5C56 15.7467 60.4772 20 66 20C71.5228 20 76 15.7467 76 10.5C76 5.25329 71.5228 1 66 1C60.4772 1 56 5.25329 56 10.5Z" fill="#0000FF"/>
<path d="M56 10.5C56 15.7467 60.4772 20 66 20C71.5228 20 76 15.7467 76 10.5C76 5.25329 71.5228 1 66 1C60.4772 1 56 5.25329 56 10.5Z" stroke="black"/>
<circle r="2.5" transform="matrix(-1 0 0 1 67.5 9.5)" fill="black"/>
</svg>
